<?xml version="1.0" standalone="no"?>
<!DOCTYPE svg PUBLIC "-//W3C//DTD SVG 20010904//EN"
 "http://www.w3.org/TR/2001/REC-SVG-20010904/DTD/svg10.dtd">
<svg version="1.0" xmlns="http://www.w3.org/2000/svg"
 width="1200.000000pt" height="700.000000pt" viewBox="0 0 1200.000000 700.000000"
 preserveAspectRatio="xMidYMid meet">

<g transform="translate(0.000000,700.000000) scale(0.100000,-0.100000)"
fill="#000000" stroke="none">
<path d="M0 3500 l0 -3500 6000 0 6000 0 0 3500 0 3500 -6000 0 -6000 0 0
-3500z m11323 1388 c-2 -5 -3 -633 -3 -1398 l0 -1390 -1345 0 -1345 0 0 1400
0 1400 1348 -2 c741 -2 1346 -6 1345 -10z m-9515 -325 l3 -23 -538 -2 -538 -3
0 -375 0 -375 503 -3 502 -2 0 -25 0 -25 -502 -2 -503 -3 0 -415 0 -415 546
-3 547 -2 158 212 c86 117 186 251 221 297 34 46 63 88 63 93 0 8 -110 162
-368 516 l-64 87 27 3 c15 2 32 -1 38 -7 6 -6 97 -131 202 -278 106 -147 196
-268 201 -269 5 -2 45 47 89 108 308 424 326 448 351 448 13 0 24 -4 24 -9 0
-5 -46 -71 -102 -147 -173 -236 -314 -430 -321 -441 -4 -6 93 -145 216 -310
123 -164 231 -311 241 -326 l18 -27 -29 0 c-26 0 -49 27 -252 300 -122 165
-226 302 -230 304 -8 6 -1 15 -270 -347 l-192 -257 -582 2 -582 3 -3 873 -2
872 562 -2 563 -3 3 -22z m1754 -444 c271 -57 443 -364 408 -728 -24 -242
-108 -402 -265 -506 -73 -47 -142 -65 -255 -65 -98 0 -172 15 -240 50 -87 45
-195 172 -223 264 -10 35 -13 -16 -17 -339 l-5 -380 -22 -3 -23 -3 0 846 0
846 23 -3 c22 -3 22 -5 25 -168 l3 -165 40 83 c103 212 321 319 551 271z
m1156 -11 c-3 -20 -11 -24 -70 -30 -191 -18 -311 -117 -380 -308 -22 -63 -23
-77 -28 -495 l-5 -430 -22 0 c-13 0 -23 3 -23 8 0 4 0 286 0 628 l0 620 23 -3
c21 -3 22 -7 27 -143 4 -99 7 -131 13 -110 5 17 24 56 44 88 70 116 219 193
376 196 45 1 48 -1 45 -21z m653 12 c235 -45 400 -265 416 -557 l6 -103 -508
0 -508 0 6 -87 c16 -227 110 -393 259 -463 149 -70 352 -57 488 30 101 65 161
161 194 313 6 25 33 37 48 22 11 -11 -15 -113 -48 -183 -58 -128 -182 -226
-327 -261 -64 -15 -231 -15 -293 0 -164 40 -287 172 -344 369 -31 106 -39 334
-16 450 40 196 149 350 301 426 104 51 210 66 326 44z m1164 -10 c43 -11 97
-31 121 -45 89 -52 146 -149 160 -274 7 -60 6 -61 -18 -61 -23 0 -26 5 -32 58
-22 197 -190 308 -436 289 -196 -15 -310 -116 -310 -275 0 -75 16 -116 61
-159 48 -45 95 -63 343 -132 228 -64 290 -90 349 -147 49 -48 70 -97 75 -180
11 -176 -92 -305 -279 -349 -84 -19 -252 -19 -339 1 -186 42 -299 180 -303
372 -2 61 0 67 18 67 17 0 21 -9 28 -75 15 -136 85 -242 192 -289 95 -42 230
-57 341 -37 189 33 294 134 294 285 0 148 -78 218 -312 282 -62 17 -156 42
-208 56 -250 68 -318 141 -308 327 5 95 27 145 87 199 109 99 296 133 476 87z
m1076 6 c68 -15 131 -42 182 -79 61 -46 117 -174 117 -269 0 -33 -3 -38 -24
-38 -21 0 -24 5 -29 62 -11 128 -93 225 -220 264 -84 26 -260 25 -332 -1 -115
-41 -183 -119 -192 -222 -11 -122 37 -197 157 -246 36 -14 153 -50 260 -80
225 -63 279 -86 336 -142 60 -60 77 -115 72 -223 -3 -72 -9 -96 -30 -133 -75
-128 -206 -189 -408 -189 -184 0 -299 39 -380 126 -52 56 -75 105 -94 197 -21
102 -21 123 5 130 23 6 24 5 39 -88 30 -194 139 -290 357 -315 203 -23 381 47
442 173 27 55 29 172 5 223 -23 47 -94 108 -157 133 -28 11 -130 41 -225 66
-328 86 -390 124 -423 258 -35 144 34 293 168 361 87 44 251 58 374 32z"/>
<path d="M10549 3611 c-112 -36 -204 -129 -230 -234 -19 -77 -8 -204 24 -268
46 -95 106 -143 299 -238 188 -93 218 -119 218 -188 0 -77 -67 -123 -176 -123
-87 0 -138 24 -203 96 l-48 55 -97 -58 c-60 -36 -96 -64 -96 -75 0 -20 63
-102 114 -146 149 -130 437 -151 606 -44 116 73 174 216 150 368 -25 154 -99
230 -335 345 -88 42 -171 89 -184 103 -28 30 -38 99 -19 136 21 39 80 63 136
55 39 -6 55 -15 94 -56 l46 -49 94 61 c51 34 94 63 96 64 15 13 -85 126 -141
162 -83 52 -241 68 -348 34z"/>
<path d="M9845 3608 c-3 -7 -6 -229 -7 -493 -2 -368 -6 -485 -16 -502 -21 -38
-68 -56 -130 -51 -49 4 -59 9 -91 45 -20 23 -43 50 -51 62 -15 20 -16 20 -112
-42 -54 -34 -98 -68 -98 -75 0 -21 54 -94 99 -135 82 -74 170 -102 304 -95
206 11 320 117 347 324 7 47 10 256 8 524 l-3 445 -123 3 c-92 2 -124 -1 -127
-10z"/>
<path d="M3341 4065 c-175 -49 -298 -192 -352 -406 -18 -71 -21 -103 -17 -228
4 -126 9 -158 33 -229 33 -97 90 -184 160 -241 121 -100 330 -126 472 -59 61
29 151 113 190 179 74 125 112 321 94 484 -27 234 -122 396 -277 471 -63 30
-87 36 -161 40 -60 3 -105 -1 -142 -11z"/>
<path d="M5151 4064 c-131 -35 -234 -124 -301 -259 -41 -82 -70 -188 -70 -257
l0 -38 480 0 480 0 0 48 c-1 121 -60 281 -137 371 -105 123 -291 179 -452 135z"/>
</g>
</svg>
